<?xml version="1.0" standalone="no"?>
<!DOCTYPE svg PUBLIC "-//W3C//DTD SVG 20010904//EN"
 "http://www.w3.org/TR/2001/REC-SVG-20010904/DTD/svg10.dtd">
<svg version="1.0" xmlns="http://www.w3.org/2000/svg"
 width="1649.000000pt" height="736.000000pt" viewBox="0 0 1649.000000 736.000000"
 preserveAspectRatio="xMidYMid meet">
<metadata>
Created by potrace 1.16, written by Peter Selinger 2001-2019
</metadata>
<g transform="translate(0.000000,736.000000) scale(0.100000,-0.100000)"
fill="#1a1a1a" stroke="none">
<path d="M12170 7350 c-762 -55 -1288 -257 -1566 -604 -158 -198 -244 -460
-244 -746 0 -597 290 -978 904 -1187 149 -51 328 -95 632 -157 300 -62 419
-93 509 -135 147 -68 206 -176 156 -286 -69 -152 -357 -225 -831 -212 -404 12
-756 69 -1089 179 -69 22 -145 49 -169 59 -24 11 -48 19 -53 19 -10 0 -11
-1032 0 -1069 8 -30 26 -34 386 -86 484 -69 763 -89 1265 -89 491 0 679 19
996 99 747 191 1127 626 1127 1290 -1 543 -243 905 -746 1114 -192 79 -333
117 -782 206 -375 75 -488 108 -576 168 -76 51 -99 91 -99 170 0 69 16 103 70
150 99 84 242 111 600 111 345 1 550 -21 858 -90 92 -20 308 -84 378 -111 12
-4 14 72 12 543 l-3 549 -105 17 c-170 27 -492 67 -680 83 -206 19 -771 27
-950 15z"/>
<path d="M14854 5458 c4 -1019 9 -1967 12 -2107 l6 -254 801 6 c440 4 802 9
805 11 2 3 1 947 -4 2098 l-9 2093 -808 3 -809 2 6 -1852z"/>
<path d="M7238 7270 c-712 -3 -1100 -9 -1106 -15 -8 -9 -552 -1643 -552 -1659
0 -3 342 -6 760 -6 713 0 760 1 768 18 6 9 49 134 98 277 78 230 89 256 97
230 5 -17 203 -707 440 -1535 l432 -1505 670 -2 c369 -2 749 1 846 5 l176 7
-534 1475 c-293 811 -632 1754 -752 2095 -143 404 -224 620 -232 620 -8 0
-508 -2 -1111 -5z"/>
<path d="M3398 7253 l-698 -3 0 -723 0 -724 -197 -6 c-108 -4 -351 -7 -540 -7
l-343 0 0 664 c0 364 -3 691 -6 725 l-7 61 -805 0 -805 0 7 -1567 c3 -863 9
-1810 12 -2105 l7 -538 516 0 c284 0 647 3 806 7 l290 6 -3 754 -3 753 540 0
539 0 4 -749 c1 -412 6 -752 9 -755 3 -3 367 -3 809 1 l803 6 -7 1821 c-3
1002 -9 1948 -12 2104 l-6 282 -107 -2 c-58 -2 -420 -4 -803 -5z"/>
<path d="M5435 4720 l-149 -5 -294 -829 c-161 -455 -291 -831 -288 -833 3 -3
360 -2 793 3 l788 9 217 810 c119 446 220 820 223 833 l5 22 -572 -2 c-315 -1
-640 -5 -723 -8z"/>
<path d="M15081 1868 c-5 -13 -27 -76 -49 -140 l-42 -118 138 0 137 0 45 127
c25 70 46 133 48 140 3 10 -28 13 -133 13 -131 0 -136 -1 -144 -22z"/>
<path d="M6045 1853 l-80 -4 -328 -897 c-180 -493 -327 -900 -327 -904 0 -5
56 -8 124 -8 l124 0 10 28 c5 15 152 422 326 904 174 483 316 880 316 883 0 3
-19 4 -42 3 -24 -1 -79 -4 -123 -5z"/>
<path d="M8191 1838 c-29 -76 -635 -1756 -639 -1771 -4 -16 7 -17 126 -17
l130 0 96 288 c53 158 106 307 117 331 l19 44 43 -81 c23 -44 105 -193 181
-331 l140 -251 173 0 174 0 -12 23 c-7 12 -103 178 -215 369 -112 192 -204
351 -204 356 0 4 184 138 409 297 l410 290 -166 3 -165 2 -312 -231 c-306
-228 -379 -283 -403 -302 -17 -13 -9 12 90 278 174 464 264 715 259 720 -3 3
-59 5 -124 5 -114 0 -119 -1 -127 -22z"/>
<path d="M9790 1733 c-69 -19 -128 -40 -132 -46 -3 -6 -30 -77 -60 -159 l-53
-148 -152 0 -151 0 -31 -86 c-17 -47 -31 -89 -31 -95 0 -5 60 -9 145 -9 80 0
145 -3 145 -6 0 -4 -49 -145 -109 -313 -170 -475 -181 -511 -181 -609 0 -91
57 -169 143 -198 40 -13 75 -16 171 -11 67 3 144 10 172 16 l51 12 30 110 c17
60 25 105 19 100 -22 -18 -125 -33 -191 -29 -60 4 -71 8 -92 33 -23 27 -25 34
-19 97 8 72 87 323 199 623 l63 170 176 3 176 2 36 90 c20 50 36 92 36 95 0 3
-79 5 -175 5 -96 0 -175 2 -175 5 0 2 29 86 65 187 36 100 65 185 65 190 0 11
1 11 -140 -29z"/>
<path d="M12108 1421 c-122 -27 -152 -37 -245 -86 -157 -83 -278 -191 -385
-345 -86 -124 -123 -200 -153 -313 -62 -230 -34 -388 90 -512 67 -67 140 -102
252 -122 115 -20 225 -7 380 46 162 55 262 120 408 266 108 107 126 130 172
220 85 168 116 271 121 402 7 186 -38 292 -158 374 -119 82 -305 109 -482 70z
m236 -210 c56 -24 108 -99 127 -181 12 -49 -7 -199 -36 -295 -58 -190 -210
-360 -405 -454 -71 -34 -81 -36 -175 -36 -88 0 -106 3 -150 26 -85 44 -145
148 -145 250 0 80 47 234 108 355 55 108 229 273 338 321 106 45 254 52 338
14z"/>
<path d="M16140 1430 c-227 -29 -371 -95 -544 -245 -115 -100 -179 -184 -246
-320 -91 -184 -123 -329 -100 -455 30 -163 124 -262 299 -314 84 -25 293 -22
402 5 131 33 128 31 165 155 17 60 31 110 29 112 -1 1 -23 -7 -48 -18 -72 -32
-194 -60 -262 -60 -126 0 -219 48 -270 141 -28 50 -30 62 -29 149 1 162 68
314 195 441 75 75 135 115 238 157 75 31 99 36 192 40 97 4 111 2 173 -23 37
-15 69 -25 71 -23 2 1 22 50 45 107 44 111 43 115 -10 126 -14 3 -45 10 -70
15 -72 15 -160 19 -230 10z"/>
<path d="M13901 1419 c-108 -19 -238 -88 -333 -178 -21 -19 -38 -31 -38 -25 0
5 13 52 29 102 l29 93 -114 -3 -115 -3 -98 -290 c-55 -159 -158 -457 -230
-662 -72 -204 -131 -374 -131 -377 0 -3 56 -6 124 -6 l124 0 12 33 c6 17 49
140 95 272 46 132 100 283 120 335 93 237 185 369 307 438 162 92 317 108 395
39 71 -62 79 -132 34 -284 -16 -54 -86 -258 -155 -454 -69 -197 -126 -360
-126 -363 0 -3 54 -6 119 -6 104 0 120 2 126 17 4 10 53 148 110 308 57 160
118 328 136 375 79 208 104 362 74 460 -23 76 -62 122 -133 157 -52 26 -67 28
-182 30 -69 1 -149 -3 -179 -8z"/>
<path d="M7025 1410 c-82 -13 -187 -46 -268 -86 -227 -112 -384 -288 -489
-548 -71 -175 -81 -221 -76 -351 3 -99 7 -117 36 -176 40 -84 91 -130 201
-183 l86 -41 145 1 c158 1 341 32 431 73 l46 21 36 112 c20 62 34 114 33 116
-2 2 -27 -8 -54 -22 -28 -14 -102 -40 -164 -58 -98 -28 -129 -32 -233 -32
-105 -1 -125 2 -161 21 -48 26 -100 82 -122 132 -14 35 -20 140 -12 223 l4 38
479 2 479 3 20 50 c29 75 68 271 68 348 0 120 -52 238 -130 292 -80 56 -232
83 -355 65z m92 -195 c60 -18 126 -83 142 -140 9 -35 -1 -195 -15 -216 -7 -11
-694 -12 -694 -1 0 22 78 134 131 188 66 66 137 114 220 145 110 42 142 46
216 24z"/>
<path d="M14929 1393 c-19 -50 -459 -1303 -459 -1308 0 -3 56 -5 124 -5 l124
0 12 33 c6 17 107 311 225 652 117 341 217 628 220 638 7 16 -3 17 -114 17
l-121 0 -11 -27z"/>
<path d="M4780 1400 c-81 -10 -236 -61 -310 -102 -174 -97 -317 -245 -405
-417 -15 -30 -46 -104 -70 -165 -126 -322 -58 -558 192 -667 77 -33 80 -34
218 -34 159 1 331 30 425 71 l55 25 33 107 c18 59 33 110 32 114 0 4 -29 -6
-64 -22 -95 -43 -296 -90 -387 -90 -222 0 -320 118 -295 354 l8 66 480 2 480
3 19 60 c53 166 75 318 59 405 -31 171 -124 261 -300 289 -71 12 -75 12 -170
1z m62 -191 c137 -30 196 -148 156 -318 l-11 -51 -348 0 c-397 0 -366 -10
-295 95 45 68 118 140 191 189 49 32 165 81 215 89 14 2 28 5 32 6 4 0 31 -4
60 -10z"/>
<path d="M11005 1395 c-106 -29 -139 -50 -254 -159 -39 -38 -61 -53 -57 -41 3
11 14 53 25 93 11 41 23 82 26 93 6 18 0 19 -108 19 l-114 0 -23 -77 c-12 -43
-35 -112 -51 -153 -16 -41 -40 -115 -54 -164 -14 -49 -30 -97 -36 -107 -9 -17
-289 -826 -289 -835 0 -3 55 -3 121 -2 l121 3 110 310 c143 404 163 454 211
528 62 97 173 199 269 247 l83 42 106 -4 107 -4 31 100 c17 56 31 107 31 114
0 17 -189 15 -255 -3z"/>
</g>
</svg>
